<svg width="24" height="25" viewBox="0 0 24 25" fill="none" xmlns="http://www.w3.org/2000/svg">
<g id="Role" clip-path="url(#clip0_32_442)">
<path id="Vector" d="M23.9987 1.62267C23.9205 2.11356 23.8522 2.60694 23.7627 3.09595C22.7728 8.49255 20.6897 13.4033 17.2604 17.7148C16.8828 18.1894 16.551 18.2827 15.9856 18.083C14.1191 17.4243 12.4911 16.3699 11.006 15.0794C10.9477 15.0287 10.8889 14.9799 10.8463 14.9442C10.2865 15.5027 9.73555 16.0524 9.15638 16.6303C9.34735 16.8119 9.56024 17.0041 9.76185 17.2083C10.192 17.6428 10.1939 18.1831 9.76185 18.617C8.11325 20.27 6.46152 21.9205 4.80917 23.5703C4.37652 24.0024 3.85871 24.2703 3.25137 24.3624C3.21442 24.368 3.17936 24.3881 3.14305 24.4012H2.48686C2.15627 24.291 1.80313 24.2228 1.49883 24.0625C-0.167919 23.1853 -0.51354 20.9663 0.811347 19.6239C2.46307 17.9508 4.13233 16.2954 5.79658 14.6342C6.21984 14.2122 6.75956 14.2135 7.18783 14.633C7.39383 14.8346 7.59106 15.0469 7.7764 15.2378C8.34304 14.6718 8.89466 14.1221 9.44628 13.5711C9.06497 13.0858 8.6511 12.5881 8.26978 12.0671C7.44079 10.9338 6.76958 9.7135 6.3075 8.38298C6.12968 7.87018 6.22673 7.51829 6.64561 7.17893C9.3342 5.00126 12.3327 3.37771 15.5729 2.18744C17.8063 1.36721 20.0992 0.781154 22.4585 0.461829C22.5436 0.450559 22.63 0.44868 22.7152 0.438662C23.4415 0.352883 23.7101 0.502527 24 1.15433V1.6233L23.9987 1.62267ZM22.0139 2.43225C21.8555 2.45354 21.7779 2.46106 21.7015 2.4742C19.4581 2.86303 17.2829 3.49104 15.1741 4.34821C12.7854 5.31933 10.5464 6.55656 8.48392 8.11061C8.30234 8.24773 8.27229 8.3523 8.37748 8.5464C8.59662 8.95025 8.78008 9.37414 9.00736 9.77361C9.51327 10.664 10.1194 11.4836 10.8119 12.2531C10.8713 12.198 10.9233 12.1523 10.9728 12.1034C11.4649 11.6125 11.9514 11.116 12.4492 10.632C12.8424 10.2501 13.4034 10.2501 13.7747 10.6145C14.1535 10.987 14.1523 11.5518 13.7703 11.9582C13.6689 12.0665 13.5618 12.1692 13.4566 12.2737C13.0202 12.7083 12.5838 13.1428 12.1399 13.5842C13.3045 14.6173 14.5592 15.4632 15.9693 16.0718C16.0832 16.1213 16.1484 16.1106 16.2216 16.0067C16.5272 15.5728 16.8527 15.1527 17.1483 14.7125C19.0755 11.8442 20.4542 8.72672 21.3321 5.38821C21.585 4.42585 21.7816 3.44846 22.0139 2.43225ZM6.47843 16.6116C6.44274 16.6429 6.40079 16.6767 6.3626 16.7149C4.97635 18.1005 3.5901 19.4867 2.20448 20.873C2.16065 20.9168 2.1162 20.9619 2.078 21.0114C1.66288 21.5454 1.92084 22.3124 2.57452 22.4896C2.9527 22.5917 3.26326 22.4671 3.53062 22.1997C4.91624 20.8135 6.30249 19.4272 7.68811 18.041C7.72631 18.0028 7.76012 17.9602 7.79142 17.9252C7.35188 17.4856 6.91797 17.0517 6.47843 16.6122V16.6116Z" fill="#001740"/>
</g>
<defs>
<clipPath id="clip0_32_442">
<rect width="24" height="24" fill="white" transform="translate(0 0.425049)"/>
</clipPath>
</defs>
</svg>
