<svg width="20" height="22" viewBox="0 0 20 22" fill="none" xmlns="http://www.w3.org/2000/svg">
<path d="M1 4.89258H18.52" stroke="#3E3E3E" stroke-width="1.5" stroke-linecap="round" stroke-linejoin="round"/>
<path d="M16.5713 4.893V18.52C16.5713 19.0364 16.3662 19.5316 16.001 19.8967C15.6359 20.2619 15.1407 20.467 14.6243 20.467H4.89231C4.37594 20.467 3.88071 20.2619 3.51558 19.8967C3.15044 19.5316 2.94531 19.0364 2.94531 18.52V4.893M5.86531 4.893V2.947C5.86531 2.69132 5.91567 2.43814 6.01352 2.20192C6.11137 1.96569 6.25478 1.75106 6.43558 1.57026C6.61637 1.38947 6.83101 1.24605 7.06723 1.14821C7.30345 1.05036 7.55663 1 7.81231 1H11.7053C12.2217 1 12.7169 1.20513 13.0821 1.57026C13.4472 1.9354 13.6523 2.43062 13.6523 2.947V4.893" stroke="#3E3E3E" stroke-width="1.5" stroke-linecap="round" stroke-linejoin="round"/>
<path d="M7.8125 9.75977V15.5998" stroke="#3E3E3E" stroke-width="1.5" stroke-linecap="round" stroke-linejoin="round"/>
<path d="M11.7031 9.75977V15.5998" stroke="#3E3E3E" stroke-width="1.5" stroke-linecap="round" stroke-linejoin="round"/>
</svg>
