<svg width="24" height="25" viewBox="0 0 24 25" fill="none" xmlns="http://www.w3.org/2000/svg">
<g id="Group">
<path id="Vector" d="M1.54411 11.0916C1.94406 8.87885 2.91241 6.98001 4.47437 5.39134C5.33586 4.51501 6.31978 3.80786 7.46917 3.26247C7.51889 3.74775 7.56638 4.19519 7.61016 4.64263C7.6532 5.08488 7.68881 5.52713 7.73408 5.96863C7.77934 6.40568 8.07615 6.67726 8.46052 6.64313C8.8486 6.60826 9.09792 6.30477 9.05933 5.85881C8.96658 4.78955 8.85676 3.72252 8.75288 2.65401C8.70761 2.18431 8.65196 1.71535 8.61857 1.24491C8.58073 0.700261 8.83969 0.427196 9.38137 0.426454C11.1682 0.42497 12.9542 0.424228 14.741 0.426454C15.279 0.426454 15.5476 0.705455 15.4986 1.24862C15.3888 2.48334 15.2604 3.71659 15.1402 4.95057C15.1098 5.26371 15.072 5.5761 15.0556 5.88998C15.0334 6.31293 15.2819 6.61197 15.6611 6.64387C16.0292 6.67504 16.3356 6.40494 16.3801 5.98941C16.4462 5.37279 16.4989 4.75542 16.5582 4.1388C16.5857 3.85683 16.6161 3.57486 16.6488 3.25728C18.2359 4.02824 19.53 5.08859 20.5689 6.46133C21.6084 7.83482 22.2674 9.37526 22.5708 11.0916C22.7853 11.0916 22.9871 11.0871 23.189 11.0923C23.9273 11.1123 24.5038 11.7052 24.4986 12.4354C24.4934 13.1514 23.9206 13.7317 23.1934 13.7562C23.1378 13.7577 23.0821 13.7569 23.0264 13.7569C15.7138 13.7569 8.40116 13.7569 1.08851 13.7569C0.392491 13.7569 -0.103923 13.4408 -0.307237 12.8709C-0.607757 12.0273 -0.000781238 11.1301 0.898552 11.0938C1.11003 11.0856 1.32151 11.0923 1.54189 11.0923L1.54411 11.0916Z" fill="#001740"/>
<path id="Vector_2" d="M1.39519 19.9767C0.959621 19.9767 0.562638 19.9789 0.165656 19.9767C-0.217971 19.9737 -0.37899 19.8179 -0.381216 19.4417C-0.384926 18.9141 -0.384184 18.3865 -0.381216 17.859C-0.37899 17.4649 -0.222423 17.3136 0.181238 17.3121C0.577479 17.3099 0.97372 17.3121 1.38257 17.3121C1.4219 16.786 1.59776 16.3408 1.98213 15.9957C2.35166 15.6648 2.78797 15.532 3.28141 15.5327C6.48399 15.5372 9.68731 15.5349 12.8899 15.5349C15.4818 15.5349 18.0737 15.5349 20.6656 15.5349C21.9196 15.5349 22.5369 16.0551 22.7477 17.3121C23.1395 17.3121 23.5357 17.3106 23.9319 17.3121C24.3482 17.3143 24.4981 17.4642 24.4996 17.882C24.5018 18.4006 24.5026 18.9186 24.4996 19.4372C24.4974 19.8172 24.3386 19.9737 23.9572 19.9767C23.5602 19.9797 23.1625 19.9767 22.7232 19.9767C22.7232 20.3633 22.7232 20.738 22.7232 21.1135C22.7232 21.3168 22.7581 21.529 22.7135 21.7219C22.6594 21.9549 22.5911 22.2213 22.4368 22.389C21.878 22.9938 21.2948 23.5777 20.69 24.1357C20.5231 24.2901 20.25 24.4051 20.0244 24.4081C18.2755 24.4303 16.5258 24.4192 14.7761 24.4214C14.4103 24.4214 14.158 24.25 13.9384 23.9643C13.465 23.3492 12.9678 22.7526 12.4788 22.1493C12.4439 22.1063 12.4001 22.0707 12.3593 22.0328C12.0633 21.759 12.0284 21.7368 11.7665 22.0351C11.2367 22.6391 10.718 23.255 10.2334 23.8953C9.9626 24.2537 9.65911 24.4288 9.20722 24.4251C7.54137 24.4118 5.87479 24.4147 4.20894 24.4236C3.8498 24.4259 3.57006 24.3086 3.32148 24.0519C2.7939 23.5065 2.25371 22.973 1.71278 22.4402C1.49536 22.2258 1.38851 21.9787 1.39296 21.6722C1.40038 21.1187 1.39519 20.5644 1.39519 19.976V19.9767ZM3.17308 17.3225C3.17308 18.6581 3.17085 19.9619 3.17901 21.2663C3.17901 21.3524 3.2458 21.4533 3.31035 21.5201C3.63165 21.8533 3.95591 22.1835 4.29353 22.4996C4.37664 22.5775 4.51392 22.6369 4.6267 22.6376C5.98683 22.6472 7.34696 22.6406 8.70709 22.648C8.87702 22.6487 8.96458 22.579 9.06772 22.4565C9.57452 21.8577 10.0524 21.2248 10.6215 20.6905C11.6433 19.7303 12.4929 19.7363 13.5132 20.6994C14.0541 21.2107 14.5194 21.805 14.995 22.3823C15.1427 22.5619 15.2703 22.6554 15.5137 22.6502C16.4019 22.6331 17.2901 22.6443 18.1783 22.6428C18.6777 22.6421 19.2372 22.7771 19.6601 22.596C20.1031 22.4061 20.4229 21.9186 20.7798 21.5446C20.8696 21.4504 20.9394 21.2945 20.9408 21.1669C20.9527 19.9641 20.9483 18.7613 20.9475 17.5584C20.9475 17.479 20.9371 17.4004 20.9319 17.3225H3.17308Z" fill="#001740"/>
</g>
</svg>
